<svg width="480" height="148" viewBox="0 0 480 148" fill="none" xmlns="http://www.w3.org/2000/svg">
<g clip-path="url(#clip0_177_1509)">
<path d="M76.1277 35.65C79.2277 35.65 81.961 36.3 84.3277 37.6C86.6944 38.867 88.5444 40.833 89.8777 43.5C91.2447 46.167 91.9277 49.6 91.9277 53.8V77.9H76.9777V56.1C76.9777 53.233 76.5444 50.917 75.6777 49.15C74.811 47.383 73.0944 46.5 70.5277 46.5C68.9944 46.5 67.6444 46.9 66.4777 47.7C65.311 48.5 64.411 49.617 63.7777 51.05C63.1444 52.45 62.8277 54.133 62.8277 56.1V77.9H48.8777V56.1C48.8777 53.233 48.3944 50.917 47.4277 49.15C46.4944 47.383 44.8277 46.5 42.4277 46.5C40.8944 46.5 39.5444 46.9 38.3777 47.7C37.211 48.467 36.311 49.567 35.6777 51C35.0777 52.4 34.7777 54.1 34.7777 56.1V77.9H19.6777V36.85H34.7777V42.7C35.1777 41.667 36.0444 40.617 37.3777 39.55C38.7444 38.45 40.4277 37.533 42.4277 36.8C44.4277 36.033 46.5444 35.65 48.7777 35.65C51.211 35.65 53.2444 36.017 54.8777 36.75C56.511 37.45 57.8444 38.4 58.8777 39.6C59.9444 40.8 60.7944 42.1 61.4277 43.5C61.8944 42.3 62.811 41.1 64.1777 39.9C65.5777 38.667 67.311 37.65 69.3777 36.85C71.4777 36.05 73.7277 35.65 76.1277 35.65ZM113.633 79.1C109.133 79.1 105.133 78.183 101.633 76.35C98.1657 74.483 95.4327 71.933 93.4327 68.7C91.4657 65.433 90.4827 61.7 90.4827 57.5C90.4827 53.3 91.4657 49.567 93.4327 46.3C95.4327 43 98.1657 40.4 101.633 38.5C105.133 36.6 109.133 35.65 113.633 35.65C118.133 35.65 122.099 36.6 125.533 38.5C128.966 40.4 131.649 43 133.583 46.3C135.516 49.567 136.483 53.3 136.483 57.5C136.483 61.7 135.516 65.433 133.583 68.7C131.649 71.933 128.966 74.483 125.533 76.35C122.099 78.183 118.133 79.1 113.633 79.1ZM113.633 66.6C115.366 66.6 116.866 66.217 118.133 65.45C119.399 64.683 120.383 63.6 121.083 62.2C121.783 60.8 122.133 59.217 122.133 57.45C122.133 55.65 121.783 54.05 121.083 52.65C120.383 51.25 119.399 50.15 118.133 49.35C116.866 48.55 115.366 48.15 113.633 48.15C111.899 48.15 110.383 48.55 109.083 49.35C107.816 50.15 106.816 51.25 106.083 52.65C105.383 54.05 105.033 55.65 105.033 57.45C105.033 59.217 105.383 60.8 106.083 62.2C106.816 63.6 107.816 64.683 109.083 65.45C110.383 66.217 111.899 66.6 113.633 66.6ZM164.643 35.65C167.51 35.65 170.31 36.233 173.043 37.4C175.776 38.567 178.026 40.417 179.793 42.95C181.56 45.45 182.443 48.75 182.443 52.85V77.9H167.193V55.35C167.193 52.417 166.493 50.217 165.093 48.75C163.693 47.25 161.86 46.5 159.593 46.5C158.093 46.5 156.676 46.9 155.343 47.7C154.043 48.467 152.976 49.567 152.143 51C151.343 52.4 150.943 54.017 150.943 55.85V77.9H135.743V36.85H150.943V42.9C151.343 41.8 152.176 40.7 153.443 39.6C154.743 38.467 156.36 37.533 158.293 36.8C160.26 36.033 162.376 35.65 164.643 35.65ZM195.376 60.6C195.476 62.067 195.942 63.367 196.776 64.5C197.609 65.633 198.759 66.533 200.226 67.2C201.726 67.833 203.492 68.15 205.526 68.15C207.459 68.15 209.192 67.95 210.726 67.55C212.292 67.15 213.642 66.65 214.776 66.05C215.942 65.45 216.842 64.833 217.476 64.2L223.376 73.6C222.542 74.5 221.359 75.383 219.826 76.25C218.326 77.083 216.342 77.767 213.876 78.3C211.409 78.833 208.292 79.1 204.526 79.1C199.992 79.1 195.959 78.25 192.426 76.55C188.892 74.85 186.109 72.35 184.076 69.05C182.042 65.75 181.026 61.717 181.026 56.95C181.026 52.95 181.892 49.35 183.626 46.15C185.392 42.917 187.942 40.367 191.276 38.5C194.609 36.6 198.626 35.65 203.326 35.65C207.792 35.65 211.659 36.467 214.926 38.1C218.226 39.733 220.759 42.167 222.526 45.4C224.326 48.6 225.226 52.6 225.226 57.4C225.226 57.667 225.209 58.2 225.176 59C225.176 59.8 225.142 60.333 225.076 60.6H195.376ZM210.926 52.65C210.892 51.583 210.609 50.533 210.076 49.5C209.542 48.433 208.742 47.567 207.676 46.9C206.609 46.2 205.242 45.85 203.576 45.85C201.909 45.85 200.492 46.183 199.326 46.85C198.192 47.483 197.326 48.317 196.726 49.35C196.126 50.383 195.792 51.483 195.726 52.65H210.926ZM245.78 64.75L256.88 36.85H271.78L243.58 98.7H228.38L237.88 77.9L220.73 36.85H235.88L245.78 64.75ZM324.995 35.65C328.095 35.65 330.829 36.3 333.195 37.6C335.562 38.867 337.412 40.833 338.745 43.5C340.112 46.167 340.795 49.6 340.795 53.8V77.9H325.845V56.1C325.845 53.233 325.412 50.917 324.545 49.15C323.679 47.383 321.962 46.5 319.395 46.5C317.862 46.5 316.512 46.9 315.345 47.7C314.179 48.5 313.279 49.617 312.645 51.05C312.012 52.45 311.695 54.133 311.695 56.1V77.9H297.745V56.1C297.745 53.233 297.262 50.917 296.295 49.15C295.362 47.383 293.695 46.5 291.295 46.5C289.762 46.5 288.412 46.9 287.245 47.7C286.079 48.467 285.179 49.567 284.545 51C283.945 52.4 283.645 54.1 283.645 56.1V77.9H268.545V36.85H283.645V42.7C284.045 41.667 284.912 40.617 286.245 39.55C287.612 38.45 289.295 37.533 291.295 36.8C293.295 36.033 295.412 35.65 297.645 35.65C300.079 35.65 302.112 36.017 303.745 36.75C305.379 37.45 306.712 38.4 307.745 39.6C308.812 40.8 309.662 42.1 310.295 43.5C310.762 42.3 311.679 41.1 313.045 39.9C314.445 38.667 316.179 37.65 318.245 36.85C320.345 36.05 322.595 35.65 324.995 35.65ZM373.45 77.9V71.25C373.15 71.917 372.383 72.883 371.15 74.15C369.95 75.417 368.35 76.567 366.35 77.6C364.35 78.6 362.017 79.1 359.35 79.1C355.35 79.1 351.85 78.133 348.85 76.2C345.85 74.233 343.517 71.617 341.85 68.35C340.183 65.05 339.35 61.4 339.35 57.4C339.35 53.4 340.183 49.767 341.85 46.5C343.517 43.2 345.85 40.567 348.85 38.6C351.85 36.633 355.35 35.65 359.35 35.65C361.917 35.65 364.167 36.067 366.1 36.9C368.033 37.7 369.6 38.667 370.8 39.8C372 40.9 372.833 41.917 373.3 42.85V36.85H388.4V77.9H373.45ZM354.25 57.4C354.25 59.267 354.683 60.95 355.55 62.45C356.417 63.917 357.567 65.067 359 65.9C360.467 66.733 362.083 67.15 363.85 67.15C365.683 67.15 367.3 66.733 368.7 65.9C370.1 65.067 371.2 63.917 372 62.45C372.833 60.95 373.25 59.267 373.25 57.4C373.25 55.533 372.833 53.867 372 52.4C371.2 50.9 370.1 49.733 368.7 48.9C367.3 48.033 365.683 47.6 363.85 47.6C362.083 47.6 360.467 48.033 359 48.9C357.567 49.733 356.417 50.9 355.55 52.4C354.683 53.867 354.25 55.533 354.25 57.4ZM386.545 36.85H393.545V20H408.595V36.85H417.795V49.35H408.595V60.8C408.595 62.5 408.845 63.883 409.345 64.95C409.845 65.983 410.762 66.5 412.095 66.5C412.995 66.5 413.762 66.3 414.395 65.9C415.029 65.5 415.412 65.233 415.545 65.1L420.745 75.9C420.512 76.1 419.779 76.467 418.545 77C417.345 77.533 415.812 78.017 413.945 78.45C412.079 78.883 409.995 79.1 407.695 79.1C403.595 79.1 400.212 77.95 397.545 75.65C394.879 73.317 393.545 69.733 393.545 64.9V49.35H386.545V36.85ZM430.473 60.6C430.573 62.067 431.04 63.367 431.873 64.5C432.707 65.633 433.857 66.533 435.323 67.2C436.823 67.833 438.59 68.15 440.623 68.15C442.557 68.15 444.29 67.95 445.823 67.55C447.39 67.15 448.74 66.65 449.873 66.05C451.04 65.45 451.94 64.833 452.573 64.2L458.473 73.6C457.64 74.5 456.457 75.383 454.923 76.25C453.423 77.083 451.44 77.767 448.973 78.3C446.507 78.833 443.39 79.1 439.623 79.1C435.09 79.1 431.057 78.25 427.523 76.55C423.99 74.85 421.207 72.35 419.173 69.05C417.14 65.75 416.123 61.717 416.123 56.95C416.123 52.95 416.99 49.35 418.723 46.15C420.49 42.917 423.04 40.367 426.373 38.5C429.707 36.6 433.723 35.65 438.423 35.65C442.89 35.65 446.757 36.467 450.023 38.1C453.323 39.733 455.857 42.167 457.623 45.4C459.423 48.6 460.323 52.6 460.323 57.4C460.323 57.667 460.307 58.2 460.273 59C460.273 59.8 460.24 60.333 460.173 60.6H430.473ZM446.023 52.65C445.99 51.583 445.707 50.533 445.173 49.5C444.64 48.433 443.84 47.567 442.773 46.9C441.707 46.2 440.34 45.85 438.673 45.85C437.007 45.85 435.59 46.183 434.423 46.85C433.29 47.483 432.423 48.317 431.823 49.35C431.223 50.383 430.89 51.483 430.823 52.65H446.023Z" fill="white"/>
<path d="M33.2329 109.5C33.4996 109.5 33.7129 109.593 33.8729 109.78C34.0462 109.953 34.1329 110.173 34.1329 110.44V122.48C34.1329 122.773 34.0329 123.02 33.8329 123.22C33.6462 123.407 33.4062 123.5 33.1129 123.5C32.9796 123.5 32.8329 123.473 32.6729 123.42C32.5262 123.367 32.4129 123.293 32.3329 123.2L24.1129 112.54L24.5729 112.28V122.58C24.5729 122.833 24.4862 123.053 24.3129 123.24C24.1396 123.413 23.9196 123.5 23.6529 123.5C23.3729 123.5 23.1462 123.413 22.9729 123.24C22.8129 123.053 22.7329 122.833 22.7329 122.58V110.52C22.7329 110.213 22.8329 109.967 23.0329 109.78C23.2329 109.593 23.4729 109.5 23.7529 109.5C23.8996 109.5 24.0529 109.533 24.2129 109.6C24.3862 109.653 24.5129 109.74 24.5929 109.86L32.6129 120.3L32.3129 120.58V110.44C32.3129 110.173 32.3996 109.953 32.5729 109.78C32.7462 109.593 32.9662 109.5 33.2329 109.5ZM55.8009 112.82C56.0942 112.82 56.3342 112.92 56.5209 113.12C56.7075 113.307 56.8009 113.547 56.8009 113.84V122.48C56.8009 122.773 56.7075 123.02 56.5209 123.22C56.3342 123.407 56.0942 123.5 55.8009 123.5C55.5209 123.5 55.2809 123.407 55.0809 123.22C54.8942 123.02 54.8009 122.773 54.8009 122.48V121.04L55.2209 121.1C55.2209 121.34 55.1209 121.607 54.9209 121.9C54.7342 122.193 54.4742 122.48 54.1409 122.76C53.8075 123.027 53.4142 123.253 52.9609 123.44C52.5075 123.613 52.0209 123.7 51.5009 123.7C50.5809 123.7 49.7542 123.467 49.0209 123C48.2875 122.52 47.7075 121.867 47.2809 121.04C46.8542 120.213 46.6409 119.273 46.6409 118.22C46.6409 117.14 46.8542 116.193 47.2809 115.38C47.7075 114.553 48.2809 113.907 49.0009 113.44C49.7342 112.973 50.5475 112.74 51.4409 112.74C52.0142 112.74 52.5409 112.833 53.0209 113.02C53.5142 113.207 53.9409 113.447 54.3009 113.74C54.6609 114.033 54.9342 114.347 55.1209 114.68C55.3209 115 55.4209 115.307 55.4209 115.6L54.8009 115.66V113.84C54.8009 113.56 54.8942 113.32 55.0809 113.12C55.2809 112.92 55.5209 112.82 55.8009 112.82ZM51.7209 121.86C52.3475 121.86 52.9009 121.7 53.3809 121.38C53.8609 121.06 54.2342 120.627 54.5009 120.08C54.7675 119.52 54.9009 118.9 54.9009 118.22C54.9009 117.527 54.7675 116.907 54.5009 116.36C54.2342 115.813 53.8609 115.38 53.3809 115.06C52.9009 114.74 52.3475 114.58 51.7209 114.58C51.1075 114.58 50.5609 114.74 50.0809 115.06C49.6142 115.38 49.2409 115.813 48.9609 116.36C48.6942 116.907 48.5609 117.527 48.5609 118.22C48.5609 118.9 48.6942 119.52 48.9609 120.08C49.2409 120.627 49.6142 121.06 50.0809 121.38C50.5609 121.7 51.1075 121.86 51.7209 121.86ZM69.6084 112.88C69.8084 112.88 69.995 112.933 70.1684 113.04C70.355 113.147 70.4884 113.307 70.5684 113.52L73.7084 120.78L73.3284 120.96L76.5084 113.54C76.695 113.1 76.995 112.887 77.4084 112.9C77.675 112.9 77.895 112.987 78.0684 113.16C78.255 113.32 78.3484 113.533 78.3484 113.8C78.3484 113.88 78.335 113.967 78.3084 114.06C78.2817 114.14 78.2484 114.22 78.2084 114.3L74.4084 122.86C74.235 123.26 73.9484 123.473 73.5484 123.5C73.3484 123.527 73.1484 123.487 72.9484 123.38C72.7617 123.26 72.615 123.087 72.5084 122.86L68.7284 114.3C68.7017 114.247 68.675 114.18 68.6484 114.1C68.6217 114.007 68.6084 113.9 68.6084 113.78C68.6084 113.58 68.695 113.38 68.8684 113.18C69.055 112.98 69.3017 112.88 69.6084 112.88ZM92.2637 122.48C92.2637 122.773 92.1707 123.02 91.9837 123.22C91.7977 123.407 91.5577 123.5 91.2637 123.5C90.9837 123.5 90.7437 123.407 90.5437 123.22C90.3577 123.02 90.2637 122.773 90.2637 122.48V113.92C90.2637 113.627 90.3577 113.387 90.5437 113.2C90.7437 113 90.9837 112.9 91.2637 112.9C91.5577 112.9 91.7977 113 91.9837 113.2C92.1707 113.387 92.2637 113.627 92.2637 113.92V122.48ZM91.2437 111.58C90.8577 111.58 90.5777 111.513 90.4037 111.38C90.2306 111.233 90.144 110.993 90.144 110.66V110.34C90.144 110.007 90.2373 109.773 90.4237 109.64C90.6107 109.507 90.8907 109.44 91.2637 109.44C91.6637 109.44 91.9507 109.513 92.1237 109.66C92.2977 109.793 92.3837 110.02 92.3837 110.34V110.66C92.3837 111.007 92.2907 111.247 92.1037 111.38C91.9307 111.513 91.6437 111.58 91.2437 111.58ZM109.335 112.74C109.908 112.74 110.435 112.833 110.915 113.02C111.395 113.207 111.808 113.447 112.155 113.74C112.515 114.02 112.795 114.313 112.995 114.62C113.195 114.927 113.295 115.193 113.295 115.42L112.835 115.44V113.84C112.835 113.56 112.928 113.32 113.115 113.12C113.301 112.92 113.541 112.82 113.835 112.82C114.128 112.82 114.368 112.92 114.555 113.12C114.741 113.307 114.835 113.547 114.835 113.84V122.66C114.835 123.793 114.595 124.713 114.115 125.42C113.635 126.14 112.995 126.667 112.195 127C111.408 127.333 110.541 127.5 109.595 127.5C109.261 127.5 108.868 127.453 108.415 127.36C107.961 127.28 107.541 127.18 107.155 127.06C106.781 126.94 106.521 126.82 106.375 126.7C106.068 126.54 105.861 126.353 105.755 126.14C105.661 125.927 105.661 125.713 105.755 125.5C105.888 125.207 106.068 125.027 106.295 124.96C106.521 124.893 106.781 124.913 107.075 125.02C107.208 125.06 107.415 125.133 107.695 125.24C107.975 125.347 108.288 125.44 108.635 125.52C108.981 125.613 109.308 125.66 109.615 125.66C110.681 125.66 111.481 125.413 112.015 124.92C112.561 124.427 112.835 123.753 112.835 122.9V121.1L113.055 121.24C113.015 121.52 112.888 121.807 112.675 122.1C112.475 122.38 112.208 122.64 111.875 122.88C111.541 123.12 111.155 123.32 110.715 123.48C110.288 123.627 109.848 123.7 109.395 123.7C108.448 123.7 107.601 123.467 106.855 123C106.108 122.52 105.515 121.873 105.075 121.06C104.635 120.233 104.415 119.287 104.415 118.22C104.415 117.153 104.635 116.213 105.075 115.4C105.515 114.573 106.101 113.927 106.835 113.46C107.581 112.98 108.415 112.74 109.335 112.74ZM109.635 114.58C108.981 114.58 108.408 114.74 107.915 115.06C107.421 115.38 107.035 115.813 106.755 116.36C106.475 116.907 106.335 117.527 106.335 118.22C106.335 118.913 106.475 119.533 106.755 120.08C107.035 120.627 107.421 121.06 107.915 121.38C108.408 121.7 108.981 121.86 109.635 121.86C110.288 121.86 110.861 121.707 111.355 121.4C111.848 121.08 112.235 120.647 112.515 120.1C112.795 119.54 112.935 118.913 112.935 118.22C112.935 117.527 112.795 116.907 112.515 116.36C112.235 115.8 111.848 115.367 111.355 115.06C110.861 114.74 110.288 114.58 109.635 114.58ZM136.133 112.82C136.427 112.82 136.667 112.92 136.853 113.12C137.04 113.307 137.133 113.547 137.133 113.84V122.48C137.133 122.773 137.04 123.02 136.853 123.22C136.667 123.407 136.427 123.5 136.133 123.5C135.853 123.5 135.613 123.407 135.413 123.22C135.227 123.02 135.133 122.773 135.133 122.48V121.04L135.553 121.1C135.553 121.34 135.453 121.607 135.253 121.9C135.067 122.193 134.807 122.48 134.473 122.76C134.14 123.027 133.747 123.253 133.293 123.44C132.84 123.613 132.353 123.7 131.833 123.7C130.913 123.7 130.087 123.467 129.353 123C128.62 122.52 128.04 121.867 127.613 121.04C127.187 120.213 126.973 119.273 126.973 118.22C126.973 117.14 127.187 116.193 127.613 115.38C128.04 114.553 128.613 113.907 129.333 113.44C130.067 112.973 130.88 112.74 131.773 112.74C132.347 112.74 132.873 112.833 133.353 113.02C133.847 113.207 134.273 113.447 134.633 113.74C134.993 114.033 135.267 114.347 135.453 114.68C135.653 115 135.753 115.307 135.753 115.6L135.133 115.66V113.84C135.133 113.56 135.227 113.32 135.413 113.12C135.613 112.92 135.853 112.82 136.133 112.82ZM132.053 121.86C132.68 121.86 133.233 121.7 133.713 121.38C134.193 121.06 134.567 120.627 134.833 120.08C135.1 119.52 135.233 118.9 135.233 118.22C135.233 117.527 135.1 116.907 134.833 116.36C134.567 115.813 134.193 115.38 133.713 115.06C133.233 114.74 132.68 114.58 132.053 114.58C131.44 114.58 130.893 114.74 130.413 115.06C129.947 115.38 129.573 115.813 129.293 116.36C129.027 116.907 128.893 117.527 128.893 118.22C128.893 118.9 129.027 119.52 129.293 120.08C129.573 120.627 129.947 121.06 130.413 121.38C130.893 121.7 131.44 121.86 132.053 121.86ZM149.795 113.1H154.495C154.762 113.1 154.982 113.193 155.155 113.38C155.342 113.553 155.435 113.773 155.435 114.04C155.435 114.293 155.342 114.507 155.155 114.68C154.982 114.853 154.762 114.94 154.495 114.94H149.795C149.528 114.94 149.302 114.853 149.115 114.68C148.942 114.493 148.855 114.273 148.855 114.02C148.855 113.753 148.942 113.533 149.115 113.36C149.302 113.187 149.528 113.1 149.795 113.1ZM151.895 110.5C152.188 110.5 152.428 110.6 152.615 110.8C152.802 110.987 152.895 111.227 152.895 111.52V120.8C152.895 121.04 152.935 121.233 153.015 121.38C153.095 121.527 153.202 121.627 153.335 121.68C153.482 121.733 153.628 121.76 153.775 121.76C153.922 121.76 154.048 121.733 154.155 121.68C154.275 121.627 154.415 121.6 154.575 121.6C154.735 121.6 154.882 121.673 155.015 121.82C155.148 121.967 155.215 122.167 155.215 122.42C155.215 122.74 155.042 123 154.695 123.2C154.348 123.4 153.975 123.5 153.575 123.5C153.348 123.5 153.082 123.48 152.775 123.44C152.468 123.4 152.168 123.3 151.875 123.14C151.595 122.98 151.362 122.727 151.175 122.38C150.988 122.02 150.895 121.52 150.895 120.88V111.52C150.895 111.227 150.988 110.987 151.175 110.8C151.375 110.6 151.615 110.5 151.895 110.5ZM172.452 123.7C171.346 123.7 170.386 123.473 169.572 123.02C168.759 122.553 168.126 121.92 167.672 121.12C167.232 120.307 167.012 119.38 167.012 118.34C167.012 117.167 167.246 116.167 167.712 115.34C168.192 114.5 168.812 113.86 169.572 113.42C170.332 112.967 171.139 112.74 171.992 112.74C172.646 112.74 173.266 112.873 173.852 113.14C174.439 113.393 174.959 113.753 175.412 114.22C175.879 114.673 176.246 115.213 176.512 115.84C176.779 116.453 176.919 117.127 176.932 117.86C176.919 118.127 176.812 118.347 176.612 118.52C176.412 118.693 176.179 118.78 175.912 118.78H168.132L167.652 117.08H175.172L174.792 117.44V116.94C174.766 116.473 174.612 116.067 174.332 115.72C174.052 115.36 173.706 115.087 173.292 114.9C172.879 114.7 172.446 114.6 171.992 114.6C171.592 114.6 171.206 114.667 170.832 114.8C170.472 114.92 170.146 115.12 169.852 115.4C169.572 115.68 169.346 116.053 169.172 116.52C169.012 116.973 168.932 117.54 168.932 118.22C168.932 118.953 169.086 119.593 169.392 120.14C169.699 120.687 170.112 121.113 170.632 121.42C171.152 121.713 171.726 121.86 172.352 121.86C172.846 121.86 173.252 121.813 173.572 121.72C173.892 121.613 174.159 121.487 174.372 121.34C174.586 121.193 174.772 121.053 174.932 120.92C175.132 120.8 175.332 120.74 175.532 120.74C175.772 120.74 175.972 120.827 176.132 121C176.292 121.16 176.372 121.353 176.372 121.58C176.372 121.873 176.226 122.14 175.932 122.38C175.572 122.727 175.072 123.033 174.432 123.3C173.806 123.567 173.146 123.7 172.452 123.7ZM189.953 123.48C189.62 123.48 189.36 123.387 189.173 123.2C189 123.013 188.913 122.753 188.913 122.42V122.06C188.913 121.727 189 121.467 189.173 121.28C189.36 121.093 189.62 121 189.953 121H190.173C190.506 121 190.76 121.093 190.933 121.28C191.106 121.467 191.193 121.727 191.193 122.06V122.42C191.193 122.753 191.106 123.013 190.933 123.2C190.76 123.387 190.506 123.48 190.173 123.48H189.953ZM223.791 123.7C222.831 123.7 221.978 123.567 221.231 123.3C220.484 123.033 219.771 122.593 219.091 121.98C218.944 121.873 218.831 121.747 218.751 121.6C218.684 121.44 218.651 121.28 218.651 121.12C218.651 120.867 218.744 120.64 218.931 120.44C219.118 120.24 219.351 120.14 219.631 120.14C219.844 120.14 220.044 120.213 220.231 120.36C220.738 120.827 221.264 121.18 221.811 121.42C222.371 121.66 223.024 121.78 223.771 121.78C224.304 121.78 224.791 121.693 225.231 121.52C225.684 121.347 226.044 121.113 226.311 120.82C226.578 120.527 226.711 120.187 226.711 119.8C226.711 119.32 226.571 118.927 226.291 118.62C226.024 118.3 225.631 118.04 225.111 117.84C224.604 117.627 223.991 117.447 223.271 117.3C222.604 117.18 222.004 117.013 221.471 116.8C220.951 116.587 220.504 116.32 220.131 116C219.758 115.667 219.471 115.273 219.271 114.82C219.071 114.367 218.971 113.84 218.971 113.24C218.971 112.427 219.184 111.727 219.611 111.14C220.038 110.553 220.618 110.1 221.351 109.78C222.084 109.46 222.911 109.3 223.831 109.3C224.671 109.3 225.458 109.433 226.191 109.7C226.924 109.953 227.518 110.3 227.971 110.74C228.291 111.02 228.451 111.32 228.451 111.64C228.451 111.88 228.351 112.107 228.151 112.32C227.964 112.52 227.744 112.62 227.491 112.62C227.304 112.62 227.144 112.567 227.011 112.46C226.798 112.233 226.511 112.033 226.151 111.86C225.791 111.673 225.404 111.52 224.991 111.4C224.591 111.28 224.204 111.22 223.831 111.22C223.231 111.22 222.718 111.307 222.291 111.48C221.864 111.64 221.538 111.867 221.311 112.16C221.084 112.44 220.971 112.773 220.971 113.16C220.971 113.613 221.098 113.987 221.351 114.28C221.618 114.573 221.984 114.813 222.451 115C222.918 115.173 223.451 115.333 224.051 115.48C224.784 115.64 225.438 115.82 226.011 116.02C226.598 116.22 227.091 116.48 227.491 116.8C227.891 117.107 228.198 117.493 228.411 117.96C228.624 118.427 228.731 119.007 228.731 119.7C228.731 120.5 228.504 121.2 228.051 121.8C227.598 122.4 226.998 122.867 226.251 123.2C225.518 123.533 224.698 123.7 223.791 123.7ZM249.59 112.82C249.884 112.82 250.124 112.92 250.31 113.12C250.497 113.307 250.59 113.547 250.59 113.84V122.48C250.59 122.773 250.497 123.02 250.31 123.22C250.124 123.407 249.884 123.5 249.59 123.5C249.31 123.5 249.07 123.407 248.87 123.22C248.684 123.02 248.59 122.773 248.59 122.48V121.04L249.01 121.1C249.01 121.34 248.91 121.607 248.71 121.9C248.524 122.193 248.264 122.48 247.93 122.76C247.597 123.027 247.204 123.253 246.75 123.44C246.297 123.613 245.81 123.7 245.29 123.7C244.37 123.7 243.544 123.467 242.81 123C242.077 122.52 241.497 121.867 241.07 121.04C240.644 120.213 240.43 119.273 240.43 118.22C240.43 117.14 240.644 116.193 241.07 115.38C241.497 114.553 242.07 113.907 242.79 113.44C243.524 112.973 244.337 112.74 245.23 112.74C245.804 112.74 246.33 112.833 246.81 113.02C247.304 113.207 247.73 113.447 248.09 113.74C248.45 114.033 248.724 114.347 248.91 114.68C249.11 115 249.21 115.307 249.21 115.6L248.59 115.66V113.84C248.59 113.56 248.684 113.32 248.87 113.12C249.07 112.92 249.31 112.82 249.59 112.82ZM245.51 121.86C246.137 121.86 246.69 121.7 247.17 121.38C247.65 121.06 248.024 120.627 248.29 120.08C248.557 119.52 248.69 118.9 248.69 118.22C248.69 117.527 248.557 116.907 248.29 116.36C248.024 115.813 247.65 115.38 247.17 115.06C246.69 114.74 246.137 114.58 245.51 114.58C244.897 114.58 244.35 114.74 243.87 115.06C243.404 115.38 243.03 115.813 242.75 116.36C242.484 116.907 242.35 117.527 242.35 118.22C242.35 118.9 242.484 119.52 242.75 120.08C243.03 120.627 243.404 121.06 243.87 121.38C244.35 121.7 244.897 121.86 245.51 121.86ZM263.398 112.88C263.598 112.88 263.784 112.933 263.958 113.04C264.144 113.147 264.278 113.307 264.358 113.52L267.498 120.78L267.118 120.96L270.298 113.54C270.484 113.1 270.784 112.887 271.198 112.9C271.464 112.9 271.684 112.987 271.858 113.16C272.044 113.32 272.138 113.533 272.138 113.8C272.138 113.88 272.124 113.967 272.098 114.06C272.071 114.14 272.038 114.22 271.998 114.3L268.198 122.86C268.024 123.26 267.738 123.473 267.338 123.5C267.138 123.527 266.938 123.487 266.738 123.38C266.551 123.26 266.404 123.087 266.298 122.86L262.518 114.3C262.491 114.247 262.464 114.18 262.438 114.1C262.411 114.007 262.398 113.9 262.398 113.78C262.398 113.58 262.484 113.38 262.658 113.18C262.844 112.98 263.091 112.88 263.398 112.88ZM288.976 123.7C287.869 123.7 286.909 123.473 286.096 123.02C285.282 122.553 284.649 121.92 284.196 121.12C283.756 120.307 283.536 119.38 283.536 118.34C283.536 117.167 283.769 116.167 284.236 115.34C284.716 114.5 285.336 113.86 286.096 113.42C286.856 112.967 287.662 112.74 288.516 112.74C289.169 112.74 289.789 112.873 290.376 113.14C290.962 113.393 291.482 113.753 291.936 114.22C292.402 114.673 292.769 115.213 293.036 115.84C293.302 116.453 293.442 117.127 293.456 117.86C293.442 118.127 293.336 118.347 293.136 118.52C292.936 118.693 292.702 118.78 292.436 118.78H284.656L284.176 117.08H291.696L291.316 117.44V116.94C291.289 116.473 291.136 116.067 290.856 115.72C290.576 115.36 290.229 115.087 289.816 114.9C289.402 114.7 288.969 114.6 288.516 114.6C288.116 114.6 287.729 114.667 287.356 114.8C286.996 114.92 286.669 115.12 286.376 115.4C286.096 115.68 285.869 116.053 285.696 116.52C285.536 116.973 285.456 117.54 285.456 118.22C285.456 118.953 285.609 119.593 285.916 120.14C286.222 120.687 286.636 121.113 287.156 121.42C287.676 121.713 288.249 121.86 288.876 121.86C289.369 121.86 289.776 121.813 290.096 121.72C290.416 121.613 290.682 121.487 290.896 121.34C291.109 121.193 291.296 121.053 291.456 120.92C291.656 120.8 291.856 120.74 292.056 120.74C292.296 120.74 292.496 120.827 292.656 121C292.816 121.16 292.896 121.353 292.896 121.58C292.896 121.873 292.749 122.14 292.456 122.38C292.096 122.727 291.596 123.033 290.956 123.3C290.329 123.567 289.669 123.7 288.976 123.7ZM306.476 123.48C306.143 123.48 305.883 123.387 305.696 123.2C305.523 123.013 305.436 122.753 305.436 122.42V122.06C305.436 121.727 305.523 121.467 305.696 121.28C305.883 121.093 306.143 121 306.476 121H306.696C307.03 121 307.283 121.093 307.456 121.28C307.63 121.467 307.716 121.727 307.716 122.06V122.42C307.716 122.753 307.63 123.013 307.456 123.2C307.283 123.387 307.03 123.48 306.696 123.48H306.476ZM340.574 123.5C340.254 123.5 339.994 123.407 339.794 123.22C339.608 123.02 339.514 122.773 339.514 122.48V110.5H341.654V122.48C341.654 122.773 341.548 123.02 341.334 123.22C341.134 123.407 340.881 123.5 340.574 123.5ZM336.034 111.42C335.754 111.42 335.514 111.333 335.314 111.16C335.114 110.973 335.014 110.733 335.014 110.44C335.014 110.16 335.114 109.933 335.314 109.76C335.514 109.587 335.754 109.5 336.034 109.5H345.134C345.414 109.5 345.648 109.593 345.834 109.78C346.034 109.953 346.134 110.18 346.134 110.46C346.134 110.753 346.034 110.987 345.834 111.16C345.648 111.333 345.414 111.42 345.134 111.42H336.034ZM363.477 112.8C364.397 112.8 365.111 113 365.617 113.4C366.124 113.787 366.477 114.313 366.677 114.98C366.891 115.647 366.997 116.38 366.997 117.18V122.48C366.997 122.773 366.897 123.02 366.697 123.22C366.511 123.407 366.277 123.5 365.997 123.5C365.704 123.5 365.464 123.407 365.277 123.22C365.091 123.02 364.997 122.773 364.997 122.48V117.18C364.997 116.713 364.931 116.287 364.797 115.9C364.677 115.513 364.457 115.207 364.137 114.98C363.831 114.753 363.397 114.64 362.837 114.64C362.317 114.64 361.851 114.753 361.437 114.98C361.037 115.207 360.724 115.513 360.497 115.9C360.284 116.287 360.177 116.713 360.177 117.18V122.48C360.177 122.773 360.077 123.02 359.877 123.22C359.691 123.407 359.457 123.5 359.177 123.5C358.884 123.5 358.644 123.407 358.457 123.22C358.271 123.02 358.177 122.773 358.177 122.48V109.72C358.177 109.427 358.271 109.187 358.457 109C358.644 108.8 358.884 108.7 359.177 108.7C359.457 108.7 359.691 108.8 359.877 109C360.077 109.187 360.177 109.427 360.177 109.72V115.18L359.817 115.38C359.911 115.087 360.064 114.787 360.277 114.48C360.504 114.173 360.777 113.893 361.097 113.64C361.431 113.387 361.797 113.187 362.197 113.04C362.597 112.88 363.024 112.8 363.477 112.8ZM380.779 123.5C380.485 123.5 380.245 123.407 380.059 123.22C379.872 123.02 379.779 122.773 379.779 122.48V114C379.779 113.707 379.872 113.467 380.059 113.28C380.245 113.08 380.485 112.98 380.779 112.98C381.059 112.98 381.292 113.08 381.479 113.28C381.679 113.467 381.779 113.707 381.779 114V116.24L381.579 115.38C381.685 115.007 381.845 114.66 382.059 114.34C382.285 114.02 382.552 113.74 382.859 113.5C383.165 113.26 383.505 113.073 383.879 112.94C384.265 112.807 384.665 112.74 385.079 112.74C385.425 112.74 385.725 112.833 385.979 113.02C386.232 113.207 386.359 113.44 386.359 113.72C386.359 114.08 386.265 114.347 386.079 114.52C385.892 114.68 385.685 114.76 385.459 114.76C385.259 114.76 385.065 114.72 384.879 114.64C384.692 114.547 384.472 114.5 384.219 114.5C383.939 114.5 383.652 114.573 383.359 114.72C383.065 114.867 382.799 115.087 382.559 115.38C382.319 115.66 382.125 115.993 381.979 116.38C381.845 116.767 381.779 117.2 381.779 117.68V122.48C381.779 122.773 381.679 123.02 381.479 123.22C381.292 123.407 381.059 123.5 380.779 123.5ZM400.018 122.48C400.018 122.773 399.925 123.02 399.738 123.22C399.552 123.407 399.312 123.5 399.018 123.5C398.738 123.5 398.498 123.407 398.298 123.22C398.112 123.02 398.018 122.773 398.018 122.48V113.92C398.018 113.627 398.112 113.387 398.298 113.2C398.498 113 398.738 112.9 399.018 112.9C399.312 112.9 399.552 113 399.738 113.2C399.925 113.387 400.018 113.627 400.018 113.92V122.48ZM398.998 111.58C398.612 111.58 398.332 111.513 398.158 111.38C397.985 111.233 397.898 110.993 397.898 110.66V110.34C397.898 110.007 397.992 109.773 398.178 109.64C398.365 109.507 398.645 109.44 399.018 109.44C399.418 109.44 399.705 109.513 399.878 109.66C400.052 109.793 400.138 110.02 400.138 110.34V110.66C400.138 111.007 400.045 111.247 399.858 111.38C399.685 111.513 399.398 111.58 398.998 111.58ZM412.949 112.88C413.149 112.88 413.335 112.933 413.509 113.04C413.695 113.147 413.829 113.307 413.909 113.52L417.049 120.78L416.669 120.96L419.849 113.54C420.035 113.1 420.335 112.887 420.749 112.9C421.015 112.9 421.235 112.987 421.408 113.16C421.595 113.32 421.689 113.533 421.689 113.8C421.689 113.88 421.675 113.967 421.649 114.06C421.622 114.14 421.589 114.22 421.549 114.3L417.749 122.86C417.575 123.26 417.289 123.473 416.889 123.5C416.689 123.527 416.489 123.487 416.289 123.38C416.102 123.26 415.955 123.087 415.849 122.86L412.069 114.3C412.042 114.247 412.015 114.18 411.989 114.1C411.962 114.007 411.949 113.9 411.949 113.78C411.949 113.58 412.035 113.38 412.209 113.18C412.395 112.98 412.642 112.88 412.949 112.88ZM438.526 123.7C437.42 123.7 436.46 123.473 435.646 123.02C434.833 122.553 434.2 121.92 433.746 121.12C433.306 120.307 433.086 119.38 433.086 118.34C433.086 117.167 433.32 116.167 433.786 115.34C434.266 114.5 434.886 113.86 435.646 113.42C436.406 112.967 437.213 112.74 438.066 112.74C438.72 112.74 439.34 112.873 439.926 113.14C440.513 113.393 441.033 113.753 441.486 114.22C441.953 114.673 442.32 115.213 442.586 115.84C442.853 116.453 442.993 117.127 443.006 117.86C442.993 118.127 442.886 118.347 442.686 118.52C442.486 118.693 442.253 118.78 441.986 118.78H434.206L433.726 117.08H441.246L440.866 117.44V116.94C440.84 116.473 440.686 116.067 440.406 115.72C440.126 115.36 439.78 115.087 439.366 114.9C438.953 114.7 438.52 114.6 438.066 114.6C437.666 114.6 437.28 114.667 436.906 114.8C436.546 114.92 436.22 115.12 435.926 115.4C435.646 115.68 435.42 116.053 435.246 116.52C435.086 116.973 435.006 117.54 435.006 118.22C435.006 118.953 435.16 119.593 435.466 120.14C435.773 120.687 436.186 121.113 436.706 121.42C437.226 121.713 437.8 121.86 438.426 121.86C438.92 121.86 439.326 121.813 439.646 121.72C439.966 121.613 440.233 121.487 440.446 121.34C440.66 121.193 440.846 121.053 441.006 120.92C441.206 120.8 441.406 120.74 441.606 120.74C441.846 120.74 442.046 120.827 442.206 121C442.366 121.16 442.446 121.353 442.446 121.58C442.446 121.873 442.3 122.14 442.006 122.38C441.646 122.727 441.146 123.033 440.506 123.3C439.88 123.567 439.22 123.7 438.526 123.7ZM456.027 123.48C455.694 123.48 455.434 123.387 455.247 123.2C455.074 123.013 454.987 122.753 454.987 122.42V122.06C454.987 121.727 455.074 121.467 455.247 121.28C455.434 121.093 455.694 121 456.027 121H456.247C456.58 121 456.834 121.093 457.007 121.28C457.18 121.467 457.267 121.727 457.267 122.06V122.42C457.267 122.753 457.18 123.013 457.007 123.2C456.834 123.387 456.58 123.48 456.247 123.48H456.027Z" fill="white"/>
</g>
<defs>
<clipPath id="clip0_177_1509">
<rect width="480" height="148" fill="white"/>
</clipPath>
</defs>
</svg>
