<svg width="106" height="18" viewBox="0 0 106 18" fill="none" xmlns="http://www.w3.org/2000/svg">
<path d="M13.5794 3.57942C14.3251 3.57942 14.9826 3.72808 15.552 4.02541C16.1213 4.3152 16.5663 4.76485 16.8871 5.37484C17.2159 5.98483 17.3802 6.77001 17.3802 7.73062V13.2427H13.7839V8.25667C13.7839 7.60094 13.6796 7.07123 13.4712 6.66709C13.2627 6.26295 12.8497 6.06099 12.2323 6.06099C11.8634 6.06099 11.5387 6.15248 11.258 6.33545C10.9774 6.51842 10.7609 6.7739 10.6085 7.10165C10.4562 7.42186 10.38 7.80679 10.38 8.25667V13.2427H7.02424V8.25667C7.02424 7.60094 6.90798 7.07123 6.67544 6.66709C6.45093 6.26295 6.04999 6.06099 5.47266 6.06099C5.10381 6.06099 4.77906 6.15248 4.4984 6.33545C4.21775 6.51088 4.00125 6.76247 3.8489 7.09022C3.70457 7.41042 3.6324 7.79924 3.6324 8.25667V13.2427H0V3.85388H3.6324V5.19187C3.72862 4.9556 3.93711 4.71545 4.25785 4.47141C4.58662 4.21982 4.99154 4.01009 5.47266 3.84244C5.95377 3.66701 6.46295 3.57942 7.00019 3.57942C7.58553 3.57942 8.07468 3.66335 8.46758 3.831C8.86048 3.99111 9.18124 4.20839 9.42981 4.48285C9.68641 4.75731 9.89088 5.05464 10.0432 5.37484C10.1555 5.10038 10.376 4.82592 10.7048 4.55146C11.0415 4.26945 11.4585 4.03685 11.9556 3.85388C12.4608 3.6709 13.0021 3.57942 13.5794 3.57942ZM22.6015 13.5172C21.519 13.5172 20.5568 13.3074 19.7149 12.8882C18.8808 12.4612 18.2233 11.8779 17.7422 11.1385C17.2691 10.3913 17.0326 9.53748 17.0326 8.57687C17.0326 7.61626 17.2691 6.76247 17.7422 6.01525C18.2233 5.26048 18.8808 4.66582 19.7149 4.23126C20.5568 3.7967 21.519 3.57942 22.6015 3.57942C23.684 3.57942 24.6381 3.7967 25.4642 4.23126C26.29 4.66582 26.9354 5.26048 27.4006 6.01525C27.8656 6.76247 28.0982 7.61626 28.0982 8.57687C28.0982 9.53748 27.8656 10.3913 27.4006 11.1385C26.9354 11.8779 26.29 12.4612 25.4642 12.8882C24.6381 13.3074 23.684 13.5172 22.6015 13.5172ZM22.6015 10.6582C23.0184 10.6582 23.3793 10.5706 23.684 10.3952C23.9886 10.2197 24.2253 9.97205 24.3937 9.65184C24.5621 9.33164 24.6463 8.96958 24.6463 8.56544C24.6463 8.15375 24.5621 7.7878 24.3937 7.4676C24.2253 7.1474 23.9886 6.89581 23.684 6.71283C23.3793 6.52986 23.0184 6.43837 22.6015 6.43837C22.1844 6.43837 21.8197 6.52986 21.507 6.71283C21.2022 6.89581 20.9617 7.1474 20.7853 7.4676C20.617 7.7878 20.5328 8.15375 20.5328 8.56544C20.5328 8.96958 20.617 9.33164 20.7853 9.65184C20.9617 9.97205 21.2022 10.2197 21.507 10.3952C21.8197 10.5706 22.1844 10.6582 22.6015 10.6582ZM34.8723 3.57942C35.562 3.57942 36.2355 3.71276 36.893 3.97967C37.5504 4.24658 38.0917 4.66971 38.5167 5.24905C38.9418 5.82084 39.1542 6.5756 39.1542 7.51334V13.2427H35.4857V8.08513C35.4857 7.41431 35.3173 6.91113 34.9806 6.5756C34.6438 6.23253 34.2028 6.06099 33.6575 6.06099C33.2967 6.06099 32.9558 6.15248 32.6351 6.33545C32.3224 6.51088 32.0657 6.76247 31.8654 7.09022C31.6729 7.41042 31.5767 7.78025 31.5767 8.19949V13.2427H27.9202V3.85388H31.5767V5.23761C31.6729 4.98602 31.8733 4.73443 32.1781 4.48285C32.4908 4.22371 32.8798 4.01009 33.3448 3.84244C33.818 3.66701 34.327 3.57942 34.8723 3.57942ZM42.2653 9.2859C42.2894 9.62142 42.4015 9.91876 42.6021 10.1779C42.8025 10.437 43.0791 10.6429 43.432 10.7954C43.7929 10.9402 44.2177 11.0127 44.707 11.0127C45.172 11.0127 45.5889 10.967 45.9579 10.8755C46.3346 10.784 46.6593 10.6696 46.9321 10.5324C47.2126 10.3952 47.4291 10.2541 47.5816 10.1093L49.0009 12.2592C48.8003 12.4651 48.5157 12.667 48.1469 12.8653C47.7861 13.0558 47.3088 13.2123 46.7156 13.3342C46.1222 13.4561 45.3724 13.5172 44.4664 13.5172C43.3757 13.5172 42.4056 13.3227 41.5557 12.9339C40.7056 12.5451 40.0361 11.9733 39.547 11.2186C39.0578 10.4638 38.8134 9.54137 38.8134 8.45108C38.8134 7.53621 39.0217 6.71283 39.4388 5.98094C39.8636 5.2415 40.477 4.65827 41.2791 4.23126C42.0808 3.7967 43.0471 3.57942 44.1778 3.57942C45.2521 3.57942 46.1823 3.76628 46.9682 4.13977C47.762 4.51327 48.3714 5.06996 48.7964 5.8094C49.2294 6.5413 49.4459 7.45616 49.4459 8.554C49.4459 8.61507 49.4418 8.73698 49.4339 8.91995C49.4339 9.10292 49.4257 9.22483 49.4099 9.2859H42.2653ZM46.006 7.4676C45.9978 7.22356 45.9297 6.98341 45.8015 6.74714C45.6731 6.5031 45.4806 6.30503 45.2242 6.15248C44.9675 5.99238 44.6387 5.91233 44.2379 5.91233C43.8369 5.91233 43.496 5.98849 43.2155 6.14104C42.9427 6.28582 42.7344 6.47657 42.5901 6.71283C42.4457 6.9491 42.3654 7.20069 42.3495 7.4676H46.006ZM54.3903 10.2351L57.0605 3.85388H60.6448L53.8611 18H50.2047L52.4899 13.2427L48.3644 3.85388H52.0088L54.3903 10.2351ZM73.446 3.57942C74.1917 3.57942 74.8494 3.72808 75.4186 4.02541C75.988 4.3152 76.433 4.76485 76.7536 5.37484C77.0825 5.98483 77.2468 6.77001 77.2468 7.73062V13.2427H73.6505V8.25667C73.6505 7.60094 73.5463 7.07123 73.3378 6.66709C73.1294 6.26295 72.7164 6.06099 72.0989 6.06099C71.7301 6.06099 71.4054 6.15248 71.1246 6.33545C70.8441 6.51842 70.6276 6.7739 70.4751 7.10165C70.3229 7.42186 70.2466 7.80679 70.2466 8.25667V13.2427H66.8908V8.25667C66.8908 7.60094 66.7747 7.07123 66.542 6.66709C66.3176 6.26295 65.9166 6.06099 65.3393 6.06099C64.9705 6.06099 64.6457 6.15248 64.365 6.33545C64.0845 6.51088 63.868 6.76247 63.7155 7.09022C63.5712 7.41042 63.499 7.79924 63.499 8.25667V13.2427H59.8666V3.85388H63.499V5.19187C63.5952 4.9556 63.8038 4.71545 64.1244 4.47141C64.4533 4.21982 64.8581 4.01009 65.3393 3.84244C65.8204 3.66701 66.3296 3.57942 66.8668 3.57942C67.4523 3.57942 67.9413 3.66335 68.3342 3.831C68.7272 3.99111 69.0479 4.20839 69.2964 4.48285C69.5531 4.75731 69.7576 5.05464 69.9098 5.37484C70.0222 5.10038 70.2428 4.82592 70.5714 4.55146C70.9081 4.26945 71.3253 4.03685 71.8222 3.85388C72.3274 3.6709 72.8687 3.57942 73.446 3.57942ZM85.1022 13.2427V11.7217C85.03 11.8743 84.8455 12.0952 84.5489 12.385C84.2602 12.6748 83.8753 12.9378 83.3942 13.1741C82.9131 13.4028 82.3519 13.5172 81.7103 13.5172C80.7481 13.5172 79.9061 13.296 79.1845 12.8539C78.4628 12.404 77.9016 11.8057 77.5006 11.0584C77.0996 10.3037 76.8992 9.46887 76.8992 8.554C76.8992 7.63914 77.0996 6.80821 77.5006 6.06099C77.9016 5.30623 78.4628 4.70402 79.1845 4.25413C79.9061 3.80424 80.7481 3.57942 81.7103 3.57942C82.3278 3.57942 82.8691 3.67479 83.3341 3.86531C83.7991 4.04829 84.176 4.26945 84.4647 4.52859C84.7533 4.78018 84.9537 5.01278 85.0661 5.22618V3.85388H88.6985V13.2427H85.1022ZM80.4835 8.554C80.4835 8.98102 80.5876 9.36595 80.7962 9.70902C81.0048 10.0445 81.2814 10.3076 81.6261 10.4981C81.979 10.6886 82.3678 10.784 82.7928 10.784C83.2338 10.784 83.6227 10.6886 83.9595 10.4981C84.2963 10.3076 84.5609 10.0445 84.7533 9.70902C84.9537 9.36595 85.054 8.98102 85.054 8.554C85.054 8.12699 84.9537 7.74595 84.7533 7.41042C84.5609 7.06735 84.2963 6.80043 83.9595 6.60991C83.6227 6.41161 83.2338 6.31258 82.7928 6.31258C82.3678 6.31258 81.979 6.41161 81.6261 6.60991C81.2814 6.80043 81.0048 7.06735 80.7962 7.41042C80.5876 7.74595 80.4835 8.12699 80.4835 8.554ZM88.2522 3.85388H89.9361V0H93.5565V3.85388H95.7696V6.71283H93.5565V9.33164C93.5565 9.72046 93.6166 10.0368 93.7369 10.2808C93.8572 10.5171 94.0778 10.6353 94.3985 10.6353C94.615 10.6353 94.7995 10.5896 94.9517 10.4981C95.1042 10.4066 95.1964 10.3455 95.2284 10.3151L96.4793 12.7853C96.4232 12.831 96.2469 12.9149 95.95 13.0368C95.6614 13.1588 95.2926 13.2695 94.8435 13.3685C94.3946 13.4675 93.8933 13.5172 93.34 13.5172C92.3537 13.5172 91.5399 13.2541 90.8984 12.7281C90.257 12.1945 89.9361 11.3748 89.9361 10.2694V6.71283H88.2522V3.85388ZM98.8194 9.2859C98.8435 9.62142 98.9558 9.91876 99.1562 10.1779C99.3568 10.437 99.6334 10.6429 99.9861 10.7954C100.347 10.9402 100.772 11.0127 101.261 11.0127C101.726 11.0127 102.143 10.967 102.512 10.8755C102.889 10.784 103.214 10.6696 103.486 10.5324C103.767 10.3952 103.983 10.2541 104.136 10.1093L105.555 12.2592C105.355 12.4651 105.07 12.667 104.701 12.8653C104.34 13.0558 103.863 13.2123 103.27 13.3342C102.676 13.4561 101.927 13.5172 101.02 13.5172C99.93 13.5172 98.9599 13.3227 98.1098 12.9339C97.2599 12.5451 96.5904 11.9733 96.1011 11.2186C95.6121 10.4638 95.3674 9.54137 95.3674 8.45108C95.3674 7.53621 95.576 6.71283 95.9929 5.98094C96.4179 5.2415 97.0313 4.65827 97.8331 4.23126C98.6351 3.7967 99.6012 3.57942 100.732 3.57942C101.806 3.57942 102.737 3.76628 103.522 4.13977C104.316 4.51327 104.926 5.06996 105.35 5.8094C105.784 6.5413 106 7.45616 106 8.554C106 8.61507 105.996 8.73698 105.988 8.91995C105.988 9.10292 105.98 9.22483 105.964 9.2859H98.8194ZM102.56 7.4676C102.552 7.22356 102.484 6.98341 102.356 6.74714C102.227 6.5031 102.035 6.30503 101.778 6.15248C101.522 5.99238 101.193 5.91233 100.792 5.91233C100.391 5.91233 100.05 5.98849 99.7696 6.14104C99.497 6.28582 99.2885 6.47657 99.1441 6.71283C98.9998 6.9491 98.9197 7.20069 98.9036 7.4676H102.56Z" fill="white"/>
</svg>
